#!OML:ASF F:\Work\Patient Classification 1\justin\Session 1\justin.ASF
:FULLY-SPECIFIED
:DEGREES
7873
root 0.604557 17.0024 4.20287 -0.230571 -14.4866 -6.86017
lowerback 12.34 5.80307 5.36311
upperback 0.080461 8.51129 0.630774
thorax -6.11177 4.01727 -3.74705
lowerneck -18.2861 -3.73864 -17.5017
upperneck 12.6613 -2.44617 11.3343
head 7.23957 -1.01587 6.37173
rclavicle -1.2921e-015 -1.59028e-015
rhumerus -34.7589 11.9909 -86.6528
rradius 130.637
rwrist -13.9946
rhand -16.7544 41.1714
rfingers 7.12502
rthumb 9.47234 11.4043
lclavicle -1.2921e-015 -1.59028e-015
lhumerus -50.9368 2.82765 86.6807
lradius 111.275
lwrist 24.7555
lhand -10.9654 7.73365
lfingers 7.12502
lthumb 15.0538 37.1663
rfemur 5.15866 -13.4995 27.3261
rtibia 33.6086
rfoot -29.3213 -20.0593
rtoes -22.9378
lfemur -34.3737 -1.1411 -5.01077
ltibia 40.2145
lfoot -0.635874 -10.6646
ltoes -24.3724
7874
root 0.602749 16.9958 4.19769 -0.238612 -14.1752 -6.72351
lowerback 12.4074 5.89748 5.21031
upperback 0.126147 8.61233 0.566501
thorax -6.10311 4.07152 -3.75121
lowerneck -18.2256 -3.89938 -17.5267
upperneck 12.4358 -2.64609 11.258
head 7.18637 -1.11562 6.31903
rclavicle 9.89948e-014 8.74653e-015
rhumerus -34.5179 12.1259 -86.5835
rradius 129.727
rwrist -13.3933
rhand -17.9997 43.3414
rfingers 7.12502
rthumb 8.2706 13.5233
lclavicle 9.89948e-014 8.74653e-015
lhumerus -51.1271 3.37432 86.2479
lradius 109.625
lwrist 25.9006
lhand -11.6034 7.95013
lfingers 7.12502
lthumb 14.4391 37.4278
rfemur 4.9374 -13.7513 27.2295
rtibia 33.8461
rfoot -29.3445 -20.323
rtoes -23.2293
lfemur -34.7178 -1.14722 -5.2378
ltibia 40.538
lfoot -0.457906 -10.8856
ltoes -24.7646
7875
root 0.602056 16.989 4.19588 -0.3057 -13.8477 -6.65894
lowerback 12.5488 5.98445 5.15406
upperback 0.176835 8.72326 0.534736
thorax -6.12078 4.12667 -3.78407
lowerneck -18.1766 -4.06048 -17.3921
upperneck 12.2511 -2.84535 10.9286
head 7.14169 -1.23011 6.1521
rclavicle -8.17502e-014 -2.42517e-014
rhumerus -34.4651 12.0544 -86.4461
rradius 129.303
rwrist -13.6823
rhand -16.3489 39.6527
rfingers 7.12502
rthumb 9.86356 9.9037
lclavicle -8.17502e-014 -2.42517e-014
lhumerus -51.4052 3.91262 85.8082
lradius 108.105
lwrist 27.1459
lhand -12.2874 8.77112
lfingers 7.12502
lthumb 13.78 38.2948
rfemur 4.71076 -14.0516 27.1958
rtibia 34.2045
rfoot -29.1482 -20.9953
rtoes -24.8983
lfemur -35.0052 -1.15957 -5.40186
ltibia 40.9215
lfoot -0.271396 -11.0828
ltoes -24.7782
7876
root 0.601975 16.9728 4.19099 -0.354801 -13.4367 -6.87336
lowerback 12.7163 5.99203 5.41427
upperback 0.33303 8.77528 0.58175
thorax -6.01164 4.15177 -3.89115
lowerneck -18.2621 -4.28781 -17.4233
upperneck 12.0752 -3.09359 10.7521
head 7.13415 -1.35947 6.06143
rclavicle -4.07509e-015 1.35174e-014
rhumerus -34.2205 11.9676 -86.234
rradius 129.334
rwrist -14.0139
rhand -13.3024 33.3739
rfingers 7.12502
rthumb 12.8017 3.78638
lclavicle -4.07509e-015 1.35174e-014
lhumerus -51.4931 4.56502 85.3279
lradius 106.207
lwrist 28.3748
lhand -13.3932 10.4992
lfingers 7.12502
lthumb 12.7142 40.0921
rfemur 4.49646 -14.3691 27.4839
rtibia 34.6347
rfoot -28.9649 -21.6887
rtoes -26.411
lfemur -35.3905 -1.22008 -5.23852
ltibia 41.3762
lfoot 0.490735 -11.1379
ltoes -22.8686
7877
root 0.601313 16.9543 4.1775 -0.377799 -12.9194 -7.10168
lowerback 13.0423 5.9239 5.69236
upperback 0.429481 8.74303 0.621542
thorax -6.05843 4.12648 -4.02805
lowerneck -18.2036 -4.46531 -17.689
upperneck 11.7875 -3.28857 10.9027
head 7.0677 -1.44664 6.12789
rclavicle -1.03617e-013 2.18663e-014
rhumerus -33.8123 12.0938 -86.0533
rradius 129.551
rwrist -14.2506
rhand -16.5167 40.6569
rfingers 7.12502
rthumb 9.70165 10.9003
lclavicle -1.03617e-013 2.18663e-014
lhumerus -51.52 5.57604 84.7247
lradius 103.738
lwrist 29.5369
lhand -14.2877 11.7568
lfingers 7.12502
lthumb 11.8517 41.4014
rfemur 4.23526 -14.7735 27.7988
rtibia 35.0931
rfoot -28.9949 -22.0802
rtoes -26.9383
lfemur -35.9335 -1.33399 -5.05297
ltibia 41.8775
lfoot 1.56974 -11.0486
ltoes -19.6845
7878
root 0.59799 16.9357 4.16128 -0.376351 -12.3738 -7.05173
lowerback 13.4393 5.88821 5.69239
upperback 0.442349 8.71492 0.541659
thorax -6.25521 4.10105 -4.15653
lowerneck -18.1276 -4.6238 -17.7712
upperneck 11.3926 -3.49079 10.9781
head 6.9606 -1.53305 6.13496
rclavicle 5.78463e-014 -1.43125e-014
rhumerus -33.627 12.0465 -85.9203
rradius 129.759
rwrist -14.434
rhand -14.4912 32.4158
rfingers 7.12502
rthumb 11.6555 2.75999
lclavicle 5.78463e-014 -1.43125e-014
lhumerus -51.5647 6.60301 84
lradius 101.334
lwrist 30.664
lhand -14.6108 11.9923
lfingers 7.12502
lthumb 11.5401 41.6546
rfemur 3.87939 -15.2649 27.8172
rtibia 35.5237
rfoot -28.9852 -22.451
rtoes -27.6549
lfemur -36.6412 -1.37891 -5.19605
ltibia 42.4261
lfoot 1.38132 -11.8198
ltoes -22.0269
7879
root 0.595407 16.9165 4.15169 -0.332299 -11.7636 -6.81432
lowerback 13.6642 5.87659 5.52415
upperback 0.451139 8.67758 0.402665
thorax -6.37676 4.07965 -4.23313
lowerneck -17.9243 -4.79888 -17.6822
upperneck 10.8922 -3.75135 10.8922
head 6.80074 -1.65447 6.04913
rclavicle 3.22528e-014 2.26615e-014
rhumerus -33.6495 11.8412 -85.802
rradius 129.653
rwrist -14.2345
rhand -13.2298 30.1375
rfingers 7.12502
rthumb 12.8717 0.55439
lclavicle 3.22528e-014 2.26615e-014
lhumerus -51.6733 7.40911 83.2321
lradius 99.0551
lwrist 31.8693
lhand -14.5653 11.5446
lfingers 7.12502
lthumb 11.584 41.2045
rfemur 3.51558 -15.7931 27.6098
rtibia 35.9309
rfoot -29.1436 -22.596
rtoes -27.7723
lfemur -37.4248 -1.49927 -5.57341
ltibia 43.0374
lfoot 1.50544 -11.9544
ltoes -22.6443
7880
root 0.588869 16.8995 4.15831 -0.388891 -11.3292 -6.71447
lowerback 13.789 5.91317 5.41489
upperback 0.511173 8.71009 0.354853
thorax -6.38663 4.09836 -4.24055
lowerneck -17.6591 -4.93545 -17.8372
upperneck 10.6379 -3.96237 11.0681
head 6.71388 -1.74911 6.10621
rclavicle -3.64273e-014 5.1684e-015
rhumerus -33.6693 11.7698 -85.7269
rradius 129.44
rwrist -13.7566
rhand -13.5549 30.6108
rfingers 7.12502
rthumb 12.5582 1.00822
lclavicle -3.64273e-014 5.1684e-015
lhumerus -51.9347 8.1923 82.425
lradius 96.6408
lwrist 33.1446
lhand -14.1981 10.6854
lfingers 7.12502
lthumb 11.9381 40.325
rfemur 3.42274 -16.159 27.5019
rtibia 36.2934
rfoot -29.4989 -22.5826
rtoes -27.451
lfemur -37.9572 -1.55748 -5.77386
ltibia 43.737
lfoot 0.994875 -12.0182
ltoes -25.0632
7881
root 0.584273 16.8804 4.1669 -0.443455 -10.9494 -6.74385
lowerback 14.0182 5.93123 5.43
upperback 0.533408 8.74906 0.357839
thorax -6.48434 4.11172 -4.27951
lowerneck -17.557 -4.98255 -18.0734
upperneck 10.5916 -4.02464 11.3262
head 6.70277 -1.76985 6.22683
rclavicle 1.04859e-013 9.14409e-015
rhumerus -33.7731 11.7903 -85.7077
rradius 129.384
rwrist -13.4419
rhand -14.4796 30.4209
rfingers 7.12502
rthumb 11.6667 0.765762
lclavicle 1.04859e-013 9.14409e-015
lhumerus -52.3199 9.05399 81.5372
lradius 94.1461
lwrist 34.5329
lhand -13.6549 10.4052
lfingers 7.12502
lthumb 12.4619 40.0136
rfemur 3.38944 -16.5731 27.4752
rtibia 36.6054
rfoot -29.8139 -22.5375
rtoes -27.6494
lfemur -38.5145 -1.5227 -5.84564
ltibia 44.5382
lfoot 0.498735 -11.9187
ltoes -26.3345
7882
root 0.578851 16.8577 4.17243 -0.411048 -10.5447 -6.98096
lowerback 14.3079 5.92002 5.65695
upperback 0.497874 8.79188 0.383036
thorax -6.64951 4.11593 -4.42234
lowerneck -17.1815 -4.95939 -17.9487
upperneck 10.1791 -4.06139 11.2525
head 6.50924 -1.78879 6.16989
rclavicle 8.73162e-014 -1.86858e-014
rhumerus -33.9951 11.677 -85.7018
rradius 129.328
rwrist -13.2564
rhand -14.5311 30.1978
rfingers 7.12502
rthumb 11.617 0.539793
lclavicle 8.73162e-014 -1.86858e-014
lhumerus -52.7245 9.9206 80.496
lradius 91.508
lwrist 35.9287
lhand -12.908 10.9489
lfingers 7.12502
lthumb 13.1819 40.5122
rfemur 3.27371 -16.8796 27.766
rtibia 36.8673
rfoot -30.0258 -22.7093
rtoes -27.9673
lfemur -39.2148 -1.48594 -5.66196
ltibia 45.41
lfoot 0.424252 -11.5806
ltoes -25.8276
7883
root 0.57588 16.8317 4.17679 -0.369588 -10.1981 -7.30854
lowerback 14.6061 5.90782 6.01723
upperback 0.577679 8.85021 0.402044
thorax -6.67217 4.13227 -4.63753
lowerneck -17.0984 -5.09854 -17.9949
upperneck 9.87051 -4.26501 11.4274
head 6.43344 -1.87048 6.20929
rclavicle 2.05742e-014 -1.86858e-014
rhumerus -33.95 11.4961 -85.591
rradius 129.203
rwrist -13.0883
rhand -14.2336 32.058
rfingers 7.12502
rthumb 11.9039 2.41638
lclavicle 2.05742e-014 -1.86858e-014
lhumerus -52.8419 10.8866 79.3766
lradius 88.5751
lwrist 37.1884
lhand -12.2768 10.8452
lfingers 7.12502
lthumb 13.7903 40.3682
rfemur 3.19432 -17.0963 28.1538
rtibia 37.0962
rfoot -30.2948 -22.8116
rtoes -27.7027
lfemur -39.9155 -1.39071 -5.38159
ltibia 46.2904
lfoot 0.25088 -11.4061
ltoes -26.4444
7884
root 0.573821 16.8052 4.18308 -0.340176 -9.95905 -7.65552
lowerback 14.8264 5.92321 6.36048
upperback 0.852726 8.93021 0.468502
thorax -6.44794 4.17776 -4.7712
lowerneck -17.7979 -5.44165 -18.305
upperneck 9.99699 -4.58284 11.7713
head 6.65569 -1.99195 6.34134
rclavicle -7.12643e-014 9.93923e-015
rhumerus -33.5777 11.3823 -85.3206
rradius 129.156
rwrist -13.1917
rhand -14.0555 30.6352
rfingers 7.12502
rthumb 12.0756 1.00361
lclavicle -7.12643e-014 9.93923e-015
lhumerus -52.2542 12.337 78.3043
lradius 85.0468
lwrist 38.5187
lhand -12.588 11.4005
lfingers 7.12502
lthumb 13.4903 40.9436
rfemur 3.20974 -17.2363 28.52
rtibia 37.283
rfoot -30.8854 -22.4225
rtoes -26.2376
lfemur -40.5588 -1.2442 -5.06384
ltibia 47.119
lfoot -0.344608 -11.5349
ltoes -28.4419
